# xmcd
# Copyright (C) 1995-1998 Ti Kan
#
# Track frame offsets:
#       150
#       10030
#       25013
#       35649
#       52057
#       71544
#       85082
#       95373
#       110151
#       122438
#       139361
#
# Disc length: 2101 seconds
#
# Revision: 0
# Processed by: cddbd v1.5.2PL0 Copyright (c) Steve Scherf et al.
# Submitted via: CD-Import v1.0
#
DISCID=8f08330b
DTITLE=Vampire Weekend - Vampire Weekend
DYEAR=2008
DGENRE=
TTITLE0=Mansard Roof
TTITLE1=Oxford Comma
TTITLE2=A-Punk
TTITLE3=Cape Cod Kwassa Kwassa
TTITLE4=M79
TTITLE5=Campus
TTITLE6=Bryn
TTITLE7=One (Blake's Got A New Face)
TTITLE8=I Stand Corrected
TTITLE9=Walcott
TTITLE10=The Kids Don't Stand A Chance
EXTD=
EXTT0=
EXTT1=
EXTT2=
EXTT3=
EXTT4=
EXTT5=
EXTT6=
EXTT7=
EXTT8=
EXTT9=
EXTT10=
PLAYORDER=
